<svg width="910" height="910" viewBox="0 0 910 910" fill="none" xmlns="http://www.w3.org/2000/svg">
<path fill-rule="evenodd" clip-rule="evenodd" d="M425.567 544.004H253.616L339.591 363L425.561 544.004H425.567ZM287.073 523.016H392.104L339.591 412.465L287.073 523.029V523.016ZM845.101 547V385.151H905V364.164H767.224V385.151H824.128V547H845.101V547ZM668.38 544.004V526.013H584.514V364.164H560.559V544.004H668.392H668.38ZM5 517.364C19.885 533.628 42.8807 545.167 74.2655 545.167C122.973 545.167 140.834 519.203 140.834 493.764C140.834 428.45 33.9534 451.004 33.9534 411.661C33.9534 395.143 49.3767 383.863 71.0237 383.863C90.7714 383.863 109.715 390.42 123.245 404.844L136.775 388.847C121.618 373.37 100.243 364.455 72.6446 364.455C37.2014 364.455 10.6917 384.117 10.6917 412.967C10.6917 475.396 117.572 450.478 117.572 495.591C117.572 508.963 107.29 525.753 75.0883 525.753C49.6551 525.753 30.1734 513.687 18.2641 500.841L5 517.364Z" fill="#28283D"/>
</svg>
